<?xml version="1.0" standalone="no"?>
<!DOCTYPE svg PUBLIC "-//W3C//DTD SVG 20010904//EN"
 "http://www.w3.org/TR/2001/REC-SVG-20010904/DTD/svg10.dtd">
<svg version="1.0" xmlns="http://www.w3.org/2000/svg"
 width="260.000000pt" height="260.000000pt" viewBox="0 0 260.000000 260.000000"
 preserveAspectRatio="xMidYMid meet">
<metadata>
Created by potrace 1.11, written by Peter Selinger 2001-2013
</metadata>
<g transform="translate(0.000000,260.000000) scale(0.100000,-0.100000)"
fill="#000000" stroke="none">
<path d="M753 2059 c-26 -23 -49 -45 -51 -49 -1 -4 14 -20 34 -35 55 -42 74
-80 74 -152 0 -34 -7 -90 -16 -125 -23 -87 -13 -196 26 -297 46 -118 104 -181
250 -269 36 -21 70 -50 77 -63 17 -33 6 -208 -15 -231 -8 -10 -29 -18 -46 -18
-17 0 -40 -7 -50 -15 -11 -8 -33 -15 -48 -15 -16 0 -44 -6 -63 -14 -26 -11
-93 -15 -297 -15 -145 0 -317 -6 -383 -13 -66 -7 -148 -13 -183 -13 l-62 0 0
-112 c0 -62 2 -113 5 -113 4 0 19 6 34 14 19 11 47 13 94 10 55 -4 68 -2 73
10 8 20 77 22 93 2 17 -20 101 -14 117 9 12 16 16 16 69 0 71 -23 212 -15 254
14 48 33 51 33 61 7 8 -22 12 -24 41 -16 17 5 37 15 45 21 11 9 21 9 41 0 44
-20 220 -24 256 -6 21 10 34 12 41 5 15 -15 44 -12 77 7 24 15 31 15 38 4 5
-7 26 -15 47 -17 52 -5 47 -5 149 6 131 15 268 18 282 7 9 -6 23 -5 43 3 16 7
40 10 53 6 17 -4 30 0 42 14 23 25 80 27 89 4 5 -13 15 -15 52 -10 25 3 55 12
66 20 15 11 25 12 38 4 14 -9 24 -6 49 11 42 30 93 26 101 -9 5 -20 14 -26 44
-31 25 -4 48 -1 65 7 31 16 61 18 61 4 0 -5 18 -10 40 -10 l40 0 0 89 0 88
-82 8 c-125 11 -716 7 -740 -6 -23 -12 -109 -30 -158 -32 -34 -2 -35 -1 -32
32 1 19 -4 44 -13 57 -8 13 -15 32 -15 44 0 11 -9 29 -21 41 -15 15 -19 28
-14 50 6 24 2 33 -23 54 -42 35 -61 114 -37 151 21 32 41 40 61 23 21 -17 34
3 34 53 0 32 8 44 77 108 94 87 159 133 295 204 157 83 256 123 343 140 162
32 181 35 253 41 72 7 72 7 72 37 0 23 -4 28 -17 24 -10 -3 -31 -2 -48 3 -29
7 -29 8 18 15 30 5 47 12 47 21 0 11 -7 12 -32 4 -18 -5 -48 -9 -66 -9 -54 0
-33 23 36 40 75 18 85 40 15 30 -68 -10 -412 -128 -613 -209 -193 -79 -348
-115 -462 -109 -61 3 -90 11 -173 50 -55 25 -133 53 -173 61 -82 17 -96 26
-121 76 -20 38 -71 196 -71 217 0 6 14 17 30 23 17 5 30 14 30 18 0 19 -24 32
-51 26 -30 -6 -89 13 -89 28 0 5 -13 9 -29 9 -20 0 -45 -13 -78 -41z m663
-981 c7 -5 17 -23 24 -41 7 -18 28 -69 47 -115 44 -106 41 -145 -13 -162 -30
-10 -38 -9 -54 5 -22 20 -32 20 -141 11 l-85 -7 -2 77 c-1 42 1 82 5 87 4 6 7
35 7 65 1 64 18 82 80 83 23 0 50 4 61 9 21 9 52 4 71 -12z m130 -305 c-10
-10 -19 5 -10 18 6 11 8 11 12 0 2 -7 1 -15 -2 -18z"/>
</g>
</svg>
